<?xml version="1.0" encoding="UTF-8" standalone="no"?>
<!DOCTYPE svg PUBLIC "-//W3C//DTD SVG 1.1//EN"
 "http://www.w3.org/Graphics/SVG/1.1/DTD/svg11.dtd">
<!-- Generated by graphviz version 2.40.1 (20161225.0304)
 -->
<!-- Title: dependencies Pages: 1 -->
<svg width="674pt" height="284pt"
 viewBox="0.00 0.00 674.00 284.00" xmlns="http://www.w3.org/2000/svg" xmlns:xlink="http://www.w3.org/1999/xlink">
<g id="graph0" class="graph" transform="scale(1 1) rotate(0) translate(4 280)">
<title>dependencies</title>
<polygon fill="#ffffff" stroke="transparent" points="-4,4 -4,-280 670,-280 670,4 -4,4"/>
<text text-anchor="start" x="312.0091" y="-42.4" font-family="sans-serif" font-weight="bold" font-size="14.00" fill="#000000">Legend</text>
<polygon fill="#ffffb3" stroke="transparent" points="99,-10 99,-30 119,-30 119,-10 99,-10"/>
<text text-anchor="start" x="122.629" y="-15.4" font-family="sans-serif" font-size="14.00" fill="#000000"> &#160;Declarations</text>
<polygon fill="#8dd3c7" stroke="transparent" points="212,-10 212,-30 232,-30 232,-10 212,-10"/>
<text text-anchor="start" x="235.7251" y="-15.4" font-family="sans-serif" font-size="14.00" fill="#000000"> &#160;Module</text>
<polygon fill="#80b1d3" stroke="transparent" points="298,-10 298,-30 318,-30 318,-10 298,-10"/>
<text text-anchor="start" x="321.7812" y="-15.4" font-family="sans-serif" font-size="14.00" fill="#000000"> &#160;Bootstrap</text>
<polygon fill="#fdb462" stroke="transparent" points="395,-10 395,-30 415,-30 415,-10 395,-10"/>
<text text-anchor="start" x="418.6732" y="-15.4" font-family="sans-serif" font-size="14.00" fill="#000000"> &#160;Providers</text>
<polygon fill="#fb8072" stroke="transparent" points="491,-10 491,-30 511,-30 511,-10 491,-10"/>
<text text-anchor="start" x="514.7258" y="-15.4" font-family="sans-serif" font-size="14.00" fill="#000000"> &#160;Exports</text>
<g id="clust1" class="cluster">
<title>cluster_SlideshowModule</title>
<polygon fill="none" stroke="#000000" stroke-dasharray="1,5" points="8,-70 8,-268 658,-268 658,-70 8,-70"/>
</g>
<g id="clust2" class="cluster">
<title>cluster_SlideshowModule_declarations</title>
<polygon fill="none" stroke="#000000" points="494,-78 494,-130 650,-130 650,-78 494,-78"/>
</g>
<g id="clust4" class="cluster">
<title>cluster_SlideshowModule_imports</title>
<polygon fill="none" stroke="#000000" points="16,-78 16,-130 486,-130 486,-78 16,-78"/>
</g>
<g id="clust5" class="cluster">
<title>cluster_SlideshowModule_exports</title>
<polygon fill="none" stroke="#000000" points="278,-208 278,-260 438,-260 438,-208 278,-208"/>
</g>
<!-- SlideshowComponent -->
<g id="node1" class="node">
<title>SlideshowComponent</title>
<polygon fill="#ffffb3" stroke="#000000" points="641.6624,-122 502.3376,-122 502.3376,-86 641.6624,-86 641.6624,-122"/>
<text text-anchor="middle" x="572" y="-99.8" font-family="Times,serif" font-size="14.00" fill="#000000">SlideshowComponent</text>
</g>
<!-- SlideshowModule -->
<g id="node2" class="node">
<title>SlideshowModule</title>
<polygon fill="#8dd3c7" stroke="#000000" points="416.8795,-187 413.8795,-191 392.8795,-191 389.8795,-187 299.1205,-187 299.1205,-151 416.8795,-151 416.8795,-187"/>
<text text-anchor="middle" x="358" y="-164.8" font-family="Times,serif" font-size="14.00" fill="#000000">SlideshowModule</text>
</g>
<!-- SlideshowComponent&#45;&gt;SlideshowModule -->
<g id="edge1" class="edge">
<title>SlideshowComponent&#45;&gt;SlideshowModule</title>
<path fill="none" stroke="#000000" d="M572,-122.1061C572,-141.3391 572,-169 572,-169 572,-169 427.0429,-169 427.0429,-169"/>
<polygon fill="#000000" stroke="#000000" points="427.043,-165.5001 417.0429,-169 427.0429,-172.5001 427.043,-165.5001"/>
</g>
<!-- SlideshowComponent  -->
<g id="node6" class="node">
<title>SlideshowComponent </title>
<polygon fill="#fb8072" stroke="#000000" points="429.6621,-252 286.3379,-252 286.3379,-216 429.6621,-216 429.6621,-252"/>
<text text-anchor="middle" x="358" y="-229.8" font-family="Times,serif" font-size="14.00" fill="#000000">SlideshowComponent </text>
</g>
<!-- SlideshowModule&#45;&gt;SlideshowComponent  -->
<g id="edge5" class="edge">
<title>SlideshowModule&#45;&gt;SlideshowComponent </title>
<path fill="none" stroke="#000000" stroke-dasharray="5,2" d="M358,-187.1061C358,-187.1061 358,-205.991 358,-205.991"/>
<polygon fill="#000000" stroke="#000000" points="354.5001,-205.9909 358,-215.991 361.5001,-205.991 354.5001,-205.9909"/>
</g>
<!-- CommonModule -->
<g id="node3" class="node">
<title>CommonModule</title>
<polygon fill="#8dd3c7" stroke="#000000" points="477.6681,-122 474.6681,-126 453.6681,-126 450.6681,-122 366.3319,-122 366.3319,-86 477.6681,-86 477.6681,-122"/>
<text text-anchor="middle" x="422" y="-99.8" font-family="Times,serif" font-size="14.00" fill="#000000">CommonModule</text>
</g>
<!-- CommonModule&#45;&gt;SlideshowModule -->
<g id="edge2" class="edge">
<title>CommonModule&#45;&gt;SlideshowModule</title>
<path fill="none" stroke="#000000" d="M391.553,-122.1061C391.553,-122.1061 391.553,-140.991 391.553,-140.991"/>
<polygon fill="#000000" stroke="#000000" points="388.053,-140.9909 391.553,-150.991 395.053,-140.991 388.053,-140.9909"/>
</g>
<!-- TruncateModule -->
<g id="node4" class="node">
<title>TruncateModule</title>
<polygon fill="#8dd3c7" stroke="#000000" points="348.7978,-122 345.7978,-126 324.7978,-126 321.7978,-122 239.2022,-122 239.2022,-86 348.7978,-86 348.7978,-122"/>
<text text-anchor="middle" x="294" y="-99.8" font-family="Times,serif" font-size="14.00" fill="#000000">TruncateModule</text>
</g>
<!-- TruncateModule&#45;&gt;SlideshowModule -->
<g id="edge3" class="edge">
<title>TruncateModule&#45;&gt;SlideshowModule</title>
<path fill="none" stroke="#000000" d="M323.8545,-122.1061C323.8545,-122.1061 323.8545,-140.991 323.8545,-140.991"/>
<polygon fill="#000000" stroke="#000000" points="320.3546,-140.9909 323.8545,-150.991 327.3546,-140.991 320.3546,-140.9909"/>
</g>
<!-- StoreModule.provideStore(args) -->
<g id="node5" class="node">
<title>StoreModule.provideStore(args)</title>
<polygon fill="#8dd3c7" stroke="#000000" points="221.5539,-122 218.5539,-126 197.5539,-126 194.5539,-122 24.4461,-122 24.4461,-86 221.5539,-86 221.5539,-122"/>
<text text-anchor="middle" x="123" y="-99.8" font-family="Times,serif" font-size="14.00" fill="#000000">StoreModule.provideStore(args)</text>
</g>
<!-- StoreModule.provideStore(args)&#45;&gt;SlideshowModule -->
<g id="edge4" class="edge">
<title>StoreModule.provideStore(args)&#45;&gt;SlideshowModule</title>
<path fill="none" stroke="#000000" d="M123,-122.1061C123,-141.3391 123,-169 123,-169 123,-169 289.0029,-169 289.0029,-169"/>
<polygon fill="#000000" stroke="#000000" points="289.0029,-172.5001 299.0029,-169 289.0029,-165.5001 289.0029,-172.5001"/>
</g>
</g>
</svg>
