<?xml version="1.0" encoding="UTF-8" standalone="no"?>
<!DOCTYPE svg PUBLIC "-//W3C//DTD SVG 1.1//EN"
 "http://www.w3.org/Graphics/SVG/1.1/DTD/svg11.dtd">
<!-- Generated by graphviz version 2.40.1 (20161225.0304)
 -->
<!-- Title: dependencies Pages: 1 -->
<svg width="692pt" height="360pt"
 viewBox="0.00 0.00 692.00 360.00" xmlns="http://www.w3.org/2000/svg" xmlns:xlink="http://www.w3.org/1999/xlink">
<g id="graph0" class="graph" transform="scale(1 1) rotate(0) translate(4 356)">
<title>dependencies</title>
<polygon fill="#ffffff" stroke="transparent" points="-4,4 -4,-356 688,-356 688,4 -4,4"/>
<text text-anchor="start" x="321.0091" y="-42.4" font-family="sans-serif" font-weight="bold" font-size="14.00" fill="#000000">Legend</text>
<polygon fill="#ffffb3" stroke="transparent" points="108,-10 108,-30 128,-30 128,-10 108,-10"/>
<text text-anchor="start" x="131.629" y="-15.4" font-family="sans-serif" font-size="14.00" fill="#000000"> &#160;Declarations</text>
<polygon fill="#8dd3c7" stroke="transparent" points="221,-10 221,-30 241,-30 241,-10 221,-10"/>
<text text-anchor="start" x="244.7251" y="-15.4" font-family="sans-serif" font-size="14.00" fill="#000000"> &#160;Module</text>
<polygon fill="#80b1d3" stroke="transparent" points="307,-10 307,-30 327,-30 327,-10 307,-10"/>
<text text-anchor="start" x="330.7812" y="-15.4" font-family="sans-serif" font-size="14.00" fill="#000000"> &#160;Bootstrap</text>
<polygon fill="#fdb462" stroke="transparent" points="404,-10 404,-30 424,-30 424,-10 404,-10"/>
<text text-anchor="start" x="427.6732" y="-15.4" font-family="sans-serif" font-size="14.00" fill="#000000"> &#160;Providers</text>
<polygon fill="#fb8072" stroke="transparent" points="500,-10 500,-30 520,-30 520,-10 500,-10"/>
<text text-anchor="start" x="523.7258" y="-15.4" font-family="sans-serif" font-size="14.00" fill="#000000"> &#160;Exports</text>
<g id="clust1" class="cluster">
<title>cluster_AppModule</title>
<polygon fill="none" stroke="#000000" stroke-dasharray="1,5" points="8,-146 8,-344 498,-344 498,-146 8,-146"/>
</g>
<g id="clust3" class="cluster">
<title>cluster_AppModule_imports</title>
<polygon fill="none" stroke="#000000" points="16,-154 16,-206 490,-206 490,-154 16,-154"/>
</g>
<g id="clust5" class="cluster">
<title>cluster_AppModule_bootstrap</title>
<polygon fill="none" stroke="#000000" points="171,-284 171,-336 295,-336 295,-284 171,-284"/>
</g>
<g id="clust7" class="cluster">
<title>cluster_SlideshowModule</title>
<polygon fill="none" stroke="#000000" stroke-dasharray="1,5" points="22,-70 22,-138 676,-138 676,-70 22,-70"/>
</g>
<g id="clust9" class="cluster">
<title>cluster_SlideshowModule_imports</title>
<polygon fill="none" stroke="#000000" points="198,-78 198,-130 668,-130 668,-78 198,-78"/>
</g>
<g id="clust10" class="cluster">
<title>cluster_SlideshowModule_exports</title>
<polygon fill="none" stroke="#000000" points="30,-78 30,-130 190,-130 190,-78 30,-78"/>
</g>
<!-- SlideshowModule -->
<g id="node1" class="node">
<title>SlideshowModule</title>
<polygon fill="#8dd3c7" stroke="#000000" points="481.8795,-198 478.8795,-202 457.8795,-202 454.8795,-198 364.1205,-198 364.1205,-162 481.8795,-162 481.8795,-198"/>
<text text-anchor="middle" x="423" y="-175.8" font-family="Times,serif" font-size="14.00" fill="#000000">SlideshowModule</text>
</g>
<!-- AppModule -->
<g id="node5" class="node">
<title>AppModule</title>
<polygon fill="#8dd3c7" stroke="#000000" points="274.6571,-263 271.6571,-267 250.6571,-267 247.6571,-263 191.3429,-263 191.3429,-227 274.6571,-227 274.6571,-263"/>
<text text-anchor="middle" x="233" y="-240.8" font-family="Times,serif" font-size="14.00" fill="#000000">AppModule</text>
</g>
<!-- SlideshowModule&#45;&gt;AppModule -->
<g id="edge1" class="edge">
<title>SlideshowModule&#45;&gt;AppModule</title>
<path fill="none" stroke="#000000" d="M423,-198.1061C423,-217.3391 423,-245 423,-245 423,-245 284.6963,-245 284.6963,-245"/>
<polygon fill="#000000" stroke="#000000" points="284.6963,-241.5001 274.6963,-245 284.6963,-248.5001 284.6963,-241.5001"/>
</g>
<!-- SlideshowComponent  -->
<g id="node10" class="node">
<title>SlideshowComponent </title>
<polygon fill="#fb8072" stroke="#000000" points="181.6621,-122 38.3379,-122 38.3379,-86 181.6621,-86 181.6621,-122"/>
<text text-anchor="middle" x="110" y="-99.8" font-family="Times,serif" font-size="14.00" fill="#000000">SlideshowComponent </text>
</g>
<!-- SlideshowModule&#45;&gt;SlideshowComponent  -->
<g id="edge9" class="edge">
<title>SlideshowModule&#45;&gt;SlideshowComponent </title>
<path fill="none" stroke="#000000" stroke-dasharray="5,2" d="M377.2991,-161.8903C377.2991,-152.103 377.2991,-142 377.2991,-142 377.2991,-142 153.9585,-142 153.9585,-142 153.9585,-142 153.9585,-132.1097 153.9585,-132.1097"/>
<polygon fill="#000000" stroke="#000000" points="157.4585,-132.1096 153.9585,-122.1097 150.4585,-132.1097 157.4585,-132.1096"/>
</g>
<!-- BrowserModule -->
<g id="node2" class="node">
<title>BrowserModule</title>
<polygon fill="#8dd3c7" stroke="#000000" points="346.4734,-198 343.4734,-202 322.4734,-202 319.4734,-198 239.5266,-198 239.5266,-162 346.4734,-162 346.4734,-198"/>
<text text-anchor="middle" x="293" y="-175.8" font-family="Times,serif" font-size="14.00" fill="#000000">BrowserModule</text>
</g>
<!-- BrowserModule&#45;&gt;AppModule -->
<g id="edge2" class="edge">
<title>BrowserModule&#45;&gt;AppModule</title>
<path fill="none" stroke="#000000" d="M257.1708,-198.1061C257.1708,-198.1061 257.1708,-216.991 257.1708,-216.991"/>
<polygon fill="#000000" stroke="#000000" points="253.6708,-216.9909 257.1708,-226.991 260.6708,-216.991 253.6708,-216.9909"/>
</g>
<!-- FormsModule -->
<g id="node3" class="node">
<title>FormsModule</title>
<polygon fill="#8dd3c7" stroke="#000000" points="221.8288,-198 218.8288,-202 197.8288,-202 194.8288,-198 126.1712,-198 126.1712,-162 221.8288,-162 221.8288,-198"/>
<text text-anchor="middle" x="174" y="-175.8" font-family="Times,serif" font-size="14.00" fill="#000000">FormsModule</text>
</g>
<!-- FormsModule&#45;&gt;AppModule -->
<g id="edge3" class="edge">
<title>FormsModule&#45;&gt;AppModule</title>
<path fill="none" stroke="#000000" d="M206.418,-198.1061C206.418,-198.1061 206.418,-216.991 206.418,-216.991"/>
<polygon fill="#000000" stroke="#000000" points="202.918,-216.9909 206.418,-226.991 209.918,-216.991 202.918,-216.9909"/>
</g>
<!-- HttpModule -->
<g id="node4" class="node">
<title>HttpModule</title>
<polygon fill="#8dd3c7" stroke="#000000" points="108.4387,-198 105.4387,-202 84.4387,-202 81.4387,-198 23.5613,-198 23.5613,-162 108.4387,-162 108.4387,-198"/>
<text text-anchor="middle" x="66" y="-175.8" font-family="Times,serif" font-size="14.00" fill="#000000">HttpModule</text>
</g>
<!-- HttpModule&#45;&gt;AppModule -->
<g id="edge4" class="edge">
<title>HttpModule&#45;&gt;AppModule</title>
<path fill="none" stroke="#000000" d="M66,-198.1061C66,-217.3391 66,-245 66,-245 66,-245 181.2896,-245 181.2896,-245"/>
<polygon fill="#000000" stroke="#000000" points="181.2897,-248.5001 191.2896,-245 181.2896,-241.5001 181.2897,-248.5001"/>
</g>
<!-- AppComponent  -->
<g id="node6" class="node">
<title>AppComponent </title>
<polygon fill="#80b1d3" stroke="#000000" points="287.439,-328 178.561,-328 178.561,-292 287.439,-292 287.439,-328"/>
<text text-anchor="middle" x="233" y="-305.8" font-family="Times,serif" font-size="14.00" fill="#000000">AppComponent </text>
</g>
<!-- AppModule&#45;&gt;AppComponent  -->
<g id="edge5" class="edge">
<title>AppModule&#45;&gt;AppComponent </title>
<path fill="none" stroke="#000000" stroke-dasharray="1,5" d="M233,-263.1061C233,-263.1061 233,-281.991 233,-281.991"/>
<polygon fill="#000000" stroke="#000000" points="229.5001,-281.9909 233,-291.991 236.5001,-281.991 229.5001,-281.9909"/>
</g>
<!-- CommonModule -->
<g id="node7" class="node">
<title>CommonModule</title>
<polygon fill="#8dd3c7" stroke="#000000" points="659.6681,-122 656.6681,-126 635.6681,-126 632.6681,-122 548.3319,-122 548.3319,-86 659.6681,-86 659.6681,-122"/>
<text text-anchor="middle" x="604" y="-99.8" font-family="Times,serif" font-size="14.00" fill="#000000">CommonModule</text>
</g>
<!-- CommonModule&#45;&gt;SlideshowModule -->
<g id="edge6" class="edge">
<title>CommonModule&#45;&gt;SlideshowModule</title>
<path fill="none" stroke="#000000" d="M604,-122.0109C604,-144.4852 604,-180 604,-180 604,-180 492.2662,-180 492.2662,-180"/>
<polygon fill="#000000" stroke="#000000" points="492.2662,-176.5001 482.2662,-180 492.2661,-183.5001 492.2662,-176.5001"/>
</g>
<!-- TruncateModule -->
<g id="node8" class="node">
<title>TruncateModule</title>
<polygon fill="#8dd3c7" stroke="#000000" points="530.7978,-122 527.7978,-126 506.7978,-126 503.7978,-122 421.2022,-122 421.2022,-86 530.7978,-86 530.7978,-122"/>
<text text-anchor="middle" x="476" y="-99.8" font-family="Times,serif" font-size="14.00" fill="#000000">TruncateModule</text>
</g>
<!-- TruncateModule&#45;&gt;SlideshowModule -->
<g id="edge7" class="edge">
<title>TruncateModule&#45;&gt;SlideshowModule</title>
<path fill="none" stroke="#000000" d="M451.6455,-122.0109C451.6455,-122.0109 451.6455,-151.855 451.6455,-151.855"/>
<polygon fill="#000000" stroke="#000000" points="448.1456,-151.8549 451.6455,-161.855 455.1456,-151.855 448.1456,-151.8549"/>
</g>
<!-- StoreModule.provideStore(args) -->
<g id="node9" class="node">
<title>StoreModule.provideStore(args)</title>
<polygon fill="#8dd3c7" stroke="#000000" points="403.5539,-122 400.5539,-126 379.5539,-126 376.5539,-122 206.4461,-122 206.4461,-86 403.5539,-86 403.5539,-122"/>
<text text-anchor="middle" x="305" y="-99.8" font-family="Times,serif" font-size="14.00" fill="#000000">StoreModule.provideStore(args)</text>
</g>
<!-- StoreModule.provideStore(args)&#45;&gt;SlideshowModule -->
<g id="edge8" class="edge">
<title>StoreModule.provideStore(args)&#45;&gt;SlideshowModule</title>
<path fill="none" stroke="#000000" d="M390.5379,-122.0109C390.5379,-122.0109 390.5379,-151.855 390.5379,-151.855"/>
<polygon fill="#000000" stroke="#000000" points="387.038,-151.8549 390.5379,-161.855 394.038,-151.855 387.038,-151.8549"/>
</g>
</g>
</svg>
